{"title":"12.Ans.D.Age.2013.FRENCH.720p.BRRip.x264-Fastbet99","uid":9181721,"size":1090188165,"categoryP":"video","categoryS":"hd___movies","magnet":"?xt=urn:btih:df7ed2b2c701eb1bf3525b7938c7f1ffe1f3c4e6&amp;dn=12.Ans.D.Age.2013.FRENCH.720p.BRRip.x264-Fastbet99&amp;tr=udp%3A%2F%2Ftracker.openbittorrent.com%3A80&amp;tr=udp%3A%2F%2Fopen.demonii.com%3A1337&amp;tr=udp%3A%2F%2Ftracker.coppersurfer.tk%3A6969&amp;tr=udp%3A%2F%2Fexodus.desync.com%3A6969","seeders":1,"leechers":0,"uploader":"Fastbet99","files":-1,"time":1384235683,"description":"12 Ans D'age (2013)\n\nIMDB Info\t\t\t\t : http://www.imdb.com/title/tt2979414/\n\nSource\t\t\t\t\t : ZEST (Thanks)\nComplete name                            : 12.Ans.D.Age.2013.FRENCH.720p.BRRip.x264-Fastbet99.mp4\nFormat                                   : MPEG-4\nFormat profile                           : Base Media\nCodec ID                                 : isom\nFile size                                : 1.02 GiB\nDuration                                 : 1h 22mn\nOverall bit rate mode                    : Variable\nOverall bit rate                         : 1 760 Kbps\n\nVideo\nID                                       : 1\nFormat                                   : AVC\nFormat/Info                              : Advanced Video Codec\nFormat profile                           : &lt;a class=&quot;__cf_email__&quot; href=&quot;/cdn-cgi/l/email-protection&quot; data-cfemail=&quot;d199b8b6b9919de5ffe0&quot;&gt;[email&amp;#160;protected]&lt;/a&gt;&lt;script cf-hash='f9e31' type=&quot;text/javascript&quot;&gt;\n/* &lt;![CDATA[ */!function(){try{var t=&quot;currentScript&quot;in document?document.currentScript:function(){for(var t=document.getElementsByTagName(&quot;script&quot;),e=t.length;e--;)if(t[e].getAttribute(&quot;cf-hash&quot;))return t[e]}();if(t&amp;&amp;t.previousSibling){var e,r,n,i,c=t.previousSibling,a=c.getAttribute(&quot;data-cfemail&quot;);if(a){for(e=&quot;&quot;,r=parseInt(a.substr(0,2),16),n=2;a.length-n;n+=2)i=parseInt(a.substr(n,2),16)^r,e+=String.fromCharCode(i);e=document.createTextNode(e),c.parentNode.replaceChild(e,c)}}}catch(u){}}();/* ]]&gt; */&lt;/script&gt;\nFormat settings, CABAC                   : Yes\nFormat settings, ReFrames                : 4 frames\nCodec ID                                 : avc1\nCodec ID/Info                            : Advanced Video Coding\nDuration                                 : 1h 22mn\nBit rate                                 : 1 660 Kbps\nMaximum bit rate                         : 12.6 Mbps\nWidth                                    : 1 280 pixels\nHeight                                   : 688 pixels\nDisplay aspect ratio                     : 1.85:1\nFrame rate mode                          : Constant\nFrame rate                               : 24.000 fps\nColor space                              : YUV\nChroma subsampling                       : 4:2:0\nBit depth                                : 8 bits\nScan type                                : Progressive\nBits/(Pixel*Frame)                       : 0.079\nStream size                              : 980 MiB (94%)\nWriting library                          : x264 core 133 r2334 a3ac64b\n\nAudio\nID                                       : 2\nFormat                                   : AAC\nFormat/Info                              : Advanced Audio Codec\nFormat profile                           : LC\nCodec ID                                 : 40\nDuration                                 : 1h 22mn\nBit rate mode                            : Variable\nBit rate                                 : 96.0 Kbps\nMaximum bit rate                         : 126 Kbps\nChannel(s)                               : 2 channels\nChannel positions                        : Front: L R\nSampling rate                            : 48.0 KHz\nCompression mode                         : Lossy\nStream size                              : 56.7 MiB (5%)\nLanguage                                 : French\n\nText\nID                                       : 3\nFormat                                   : Timed Text\nCodec ID                                 : tx3g\nDuration                                 : 1h 22mn\nBit rate mode                            : Variable\nBit rate                                 : 77 bps\nStream size                              : 46.3 KiB (0%)\nTitle                                    : FR Subs\nLanguage                                 : French\nEncoder\t\t\t\t\t : Fastbet99\n\nScreenshots\n &lt;a href=&quot;\nhttp://lookpic.com/O/i2/745/0yupy0Ug.jpeg&quot; rel=&quot;nofollow&quot; target=&quot;_NEW&quot;&gt;\nhttp://lookpic.com/O/i2/745/0yupy0Ug.jpeg&lt;/a&gt;\n\nStairway To heaven - Help People With Keep Seed As Long You Can","torrent":{"xt":"urn:btih:df7ed2b2c701eb1bf3525b7938c7f1ffe1f3c4e6","amp;dn":"12.Ans.D.Age.2013.FRENCH.720p.BRRip.x264-Fastbet99","amp;tr":["udp%3A%2F%2Ftracker.openbittorrent.com%3A80","udp%3A%2F%2Fopen.demonii.com%3A1337","udp%3A%2F%2Ftracker.coppersurfer.tk%3A6969","udp%3A%2F%2Fexodus.desync.com%3A6969"],"infoHash":"df7ed2b2c701eb1bf3525b7938c7f1ffe1f3c4e6","infoHashBuffer":{"type":"Buffer","data":[223,126,210,178,199,1,235,27,243,82,91,121,56,199,241,255,225,243,196,230]},"announce":[],"urlList":[]}}